<?xml version="1.0" encoding="UTF-8"?>
<svg xmlns="http://www.w3.org/2000/svg" xmlns:xlink="http://www.w3.org/1999/xlink" width="4375" height="1249" viewBox="0 0 4375 1249">
<path fill-rule="nonzero" fill="rgb(0%, 0%, 0%)" fill-opacity="1" d="M 816.65625 737.082031 C 829.796875 737.082031 840.449219 747.734375 840.449219 760.875 C 840.449219 774.015625 829.796875 784.667969 816.65625 784.667969 C 803.515625 784.667969 792.863281 774.015625 792.863281 760.875 C 792.863281 747.734375 803.515625 737.082031 816.65625 737.082031 Z M 727.089844 774.273438 C 740.230469 774.273438 750.882812 784.929688 750.882812 798.070312 C 750.882812 811.207031 740.230469 821.859375 727.089844 821.859375 C 713.949219 821.859375 703.296875 811.207031 703.296875 798.070312 C 703.296875 784.929688 713.949219 774.273438 727.089844 774.273438 Z M 906.222656 774.273438 C 919.363281 774.273438 930.015625 784.929688 930.015625 798.070312 C 930.015625 811.207031 919.363281 821.859375 906.222656 821.859375 C 893.082031 821.859375 882.429688 811.207031 882.429688 798.070312 C 882.429688 784.929688 893.082031 774.273438 906.222656 774.273438 Z M 689.898438 863.84375 C 703.039062 863.84375 713.6875 874.492188 713.6875 887.632812 C 713.6875 900.777344 703.039062 911.425781 689.898438 911.425781 C 676.753906 911.425781 666.101562 900.777344 666.101562 887.632812 C 666.101562 874.492188 676.753906 863.84375 689.898438 863.84375 Z M 943.417969 863.84375 C 956.554688 863.84375 967.207031 874.492188 967.207031 887.632812 C 967.207031 900.777344 956.554688 911.425781 943.417969 911.425781 C 930.277344 911.425781 919.625 900.777344 919.625 887.632812 C 919.625 874.492188 930.277344 863.84375 943.417969 863.84375 Z M 816.65625 853.585938 C 797.925781 853.585938 782.609375 868.761719 782.609375 887.632812 C 782.609375 906.367188 797.785156 921.683594 816.65625 921.683594 C 835.527344 921.683594 850.707031 906.507812 850.707031 887.632812 C 850.707031 868.902344 835.527344 853.585938 816.65625 853.585938 Z M 816.65625 814.886719 C 856.722656 814.886719 889.402344 847.433594 889.402344 887.632812 C 889.402344 927.835938 856.722656 960.382812 816.65625 960.382812 C 776.589844 960.382812 743.910156 927.835938 743.910156 887.632812 C 743.910156 847.433594 776.59375 814.886719 816.65625 814.886719 Z M 727.089844 953.40625 C 740.230469 953.40625 750.882812 964.058594 750.882812 977.199219 C 750.882812 990.339844 740.230469 1000.992188 727.089844 1000.992188 C 713.949219 1000.992188 703.296875 990.339844 703.296875 977.199219 C 703.296875 964.058594 713.949219 953.40625 727.089844 953.40625 Z M 906.222656 953.40625 C 919.363281 953.40625 930.015625 964.058594 930.015625 977.199219 C 930.015625 990.339844 919.363281 1000.992188 906.222656 1000.992188 C 893.082031 1000.992188 882.429688 990.339844 882.429688 977.199219 C 882.429688 964.058594 893.082031 953.40625 906.222656 953.40625 Z M 816.65625 990.601562 C 829.796875 990.601562 840.449219 1001.253906 840.449219 1014.394531 C 840.449219 1027.535156 829.796875 1038.1875 816.65625 1038.1875 C 803.515625 1038.1875 792.863281 1027.535156 792.863281 1014.394531 C 792.863281 1001.253906 803.515625 990.601562 816.65625 990.601562 Z M 816.65625 705.496094 C 716.285156 705.496094 634.515625 787.128906 634.515625 887.632812 C 634.515625 988.140625 716.285156 1069.773438 816.65625 1069.773438 C 917.027344 1069.773438 998.796875 988.140625 998.796875 887.632812 C 998.796875 787.128906 917.027344 705.496094 816.65625 705.496094 Z M 816.65625 680.722656 C 930.738281 680.722656 1023.570312 773.546875 1023.570312 887.632812 C 1023.570312 1001.71875 930.742188 1094.546875 816.65625 1094.546875 C 702.570312 1094.546875 609.742188 1001.71875 609.742188 887.632812 C 609.742188 773.546875 702.574219 680.722656 816.65625 680.722656 Z M 816.65625 526.984375 C 617.722656 526.984375 456.011719 688.703125 456.011719 887.632812 C 456.011719 1086.566406 617.722656 1248.285156 816.65625 1248.285156 C 1015.589844 1248.285156 1177.308594 1086.570312 1177.308594 887.632812 C 1177.308594 688.703125 1015.589844 526.984375 816.65625 526.984375 Z M 816.65625 526.984375 "/>
<path fill-rule="nonzero" fill="rgb(0%, 0%, 0%)" fill-opacity="1" d="M 3606.910156 737.082031 C 3620.050781 737.082031 3630.710938 747.734375 3630.710938 760.875 C 3630.710938 774.015625 3620.050781 784.667969 3606.910156 784.667969 C 3593.769531 784.667969 3583.121094 774.015625 3583.121094 760.875 C 3583.121094 747.734375 3593.769531 737.082031 3606.910156 737.082031 Z M 3517.351562 774.273438 C 3530.488281 774.273438 3541.140625 784.929688 3541.140625 798.070312 C 3541.140625 811.207031 3530.488281 821.859375 3517.351562 821.859375 C 3504.210938 821.859375 3493.550781 811.207031 3493.550781 798.070312 C 3493.550781 784.929688 3504.210938 774.273438 3517.351562 774.273438 Z M 3696.480469 774.273438 C 3709.621094 774.273438 3720.269531 784.929688 3720.269531 798.070312 C 3720.269531 811.207031 3709.621094 821.859375 3696.480469 821.859375 C 3683.339844 821.859375 3672.679688 811.207031 3672.679688 798.070312 C 3672.679688 784.929688 3683.339844 774.273438 3696.480469 774.273438 Z M 3480.148438 863.84375 C 3493.289062 863.84375 3503.941406 874.492188 3503.941406 887.632812 C 3503.941406 900.777344 3493.289062 911.425781 3480.148438 911.425781 C 3467.011719 911.425781 3456.359375 900.777344 3456.359375 887.632812 C 3456.359375 874.492188 3467.011719 863.84375 3480.148438 863.84375 Z M 3733.671875 863.84375 C 3746.808594 863.84375 3757.46875 874.492188 3757.46875 887.632812 C 3757.46875 900.777344 3746.808594 911.425781 3733.671875 911.425781 C 3720.53125 911.425781 3709.878906 900.777344 3709.878906 887.632812 C 3709.878906 874.492188 3720.53125 863.84375 3733.671875 863.84375 Z M 3606.910156 853.585938 C 3588.179688 853.585938 3572.859375 868.761719 3572.859375 887.632812 C 3572.859375 906.367188 3588.039062 921.683594 3606.910156 921.683594 C 3625.78125 921.683594 3640.960938 906.507812 3640.960938 887.632812 C 3640.960938 868.902344 3625.78125 853.585938 3606.910156 853.585938 Z M 3606.910156 814.886719 C 3646.980469 814.886719 3679.660156 847.433594 3679.660156 887.632812 C 3679.660156 927.835938 3646.980469 960.382812 3606.910156 960.382812 C 3566.851562 960.382812 3534.160156 927.835938 3534.160156 887.632812 C 3534.160156 847.433594 3566.851562 814.886719 3606.910156 814.886719 Z M 3517.351562 953.40625 C 3530.488281 953.40625 3541.140625 964.058594 3541.140625 977.199219 C 3541.140625 990.339844 3530.488281 1000.992188 3517.351562 1000.992188 C 3504.210938 1000.992188 3493.550781 990.339844 3493.550781 977.199219 C 3493.550781 964.058594 3504.210938 953.40625 3517.351562 953.40625 Z M 3696.480469 953.40625 C 3709.621094 953.40625 3720.269531 964.058594 3720.269531 977.199219 C 3720.269531 990.339844 3709.621094 1000.992188 3696.480469 1000.992188 C 3683.339844 1000.992188 3672.679688 990.339844 3672.679688 977.199219 C 3672.679688 964.058594 3683.339844 953.40625 3696.480469 953.40625 Z M 3606.910156 990.601562 C 3620.050781 990.601562 3630.710938 1001.253906 3630.710938 1014.394531 C 3630.710938 1027.535156 3620.050781 1038.1875 3606.910156 1038.1875 C 3593.769531 1038.1875 3583.121094 1027.535156 3583.121094 1014.394531 C 3583.121094 1001.253906 3593.769531 990.601562 3606.910156 990.601562 Z M 3606.910156 705.496094 C 3506.539062 705.496094 3424.769531 787.128906 3424.769531 887.632812 C 3424.769531 988.140625 3506.539062 1069.773438 3606.910156 1069.773438 C 3707.28125 1069.773438 3789.050781 988.140625 3789.050781 887.632812 C 3789.050781 787.128906 3707.28125 705.496094 3606.910156 705.496094 Z M 3606.910156 680.722656 C 3721 680.722656 3813.820312 773.546875 3813.820312 887.632812 C 3813.820312 1001.71875 3721 1094.546875 3606.910156 1094.546875 C 3492.828125 1094.546875 3400 1001.71875 3400 887.632812 C 3400 773.546875 3492.828125 680.722656 3606.910156 680.722656 Z M 3606.910156 526.984375 C 3407.980469 526.984375 3246.269531 688.703125 3246.269531 887.632812 C 3246.269531 1086.566406 3407.980469 1248.285156 3606.910156 1248.285156 C 3805.839844 1248.285156 3967.558594 1086.570312 3967.558594 887.632812 C 3967.558594 688.703125 3805.851562 526.984375 3606.910156 526.984375 Z M 3606.910156 526.984375 "/>
<path fill-rule="nonzero" fill="rgb(0%, 0%, 0%)" fill-opacity="1" d="M 3089.578125 112.589844 L 3089.898438 112.601562 L 3089.898438 112.628906 C 3090.039062 112.628906 3090.179688 112.628906 3090.320312 112.628906 C 3112.671875 112.628906 3146.121094 117.660156 3190.640625 127.769531 C 3274.5 146.808594 3363.25 173.910156 3456.628906 209.671875 C 3485.460938 220.710938 3511.03125 232.320312 3533.609375 243.75 L 3563.808594 260.652344 L 3586.679688 277.042969 L 3600.859375 292.605469 L 3605.390625 307.082031 L 3601.039062 320.40625 L 3588.941406 332.566406 L 3570.238281 343.554688 L 3546.101562 353.355469 C 3528.191406 359.496094 3508.191406 364.828125 3486.089844 369.351562 L 3452.53125 375.519531 C 3429.488281 379.226562 3406.671875 382.328125 3384.03125 384.144531 C 3348.820312 386.972656 3322.238281 388.042969 3304.351562 388.042969 C 3296.460938 388.042969 3290.261719 387.792969 3285.738281 387.285156 L 3264.628906 385.667969 C 3251.589844 384.238281 3240.25 382.230469 3230.601562 379.644531 L 3217.121094 375.429688 C 3208.878906 372.367188 3201.898438 368.710938 3195.800781 365.082031 C 3186.199219 359.378906 3174.800781 348.796875 3162.25 332.484375 C 3149.949219 316.480469 3066.570312 172.761719 3066.570312 172.761719 C 3057.410156 156.980469 3051.960938 143.339844 3051.820312 131.441406 C 3051.738281 123.738281 3057.589844 118.28125 3068.390625 115.019531 C 3073.691406 113.421875 3080.75 112.589844 3089.578125 112.589844 Z M 2727.910156 95.121094 L 2730.449219 95.121094 L 2730.449219 95.160156 C 2736.828125 95.148438 2743.320312 95.140625 2749.910156 95.140625 C 2785.289062 95.140625 2823.578125 95.308594 2864.769531 95.949219 C 2890.878906 96.359375 2911.070312 100.96875 2925.339844 109.230469 C 2959.898438 118.339844 3007.320312 196.269531 3067.601562 343.007812 C 3074.699219 360.296875 3065.421875 409.132812 3053.378906 427.257812 C 3039.941406 447.5 3016.160156 461.441406 2984.898438 471.070312 C 2881.351562 502.964844 1850.300781 515.453125 1850.300781 515.453125 C 1861.730469 504.265625 1867.699219 491.582031 1868.230469 477.394531 L 1865.300781 463.523438 C 1852.71875 437.253906 1822.769531 420.257812 1775.441406 412.519531 C 1761.039062 410.164062 1746.441406 408.976562 1731.628906 408.976562 C 1715.570312 408.976562 1699.261719 410.367188 1682.699219 413.144531 C 1795.390625 335.445312 1886.441406 278.875 1955.289062 242.320312 C 2045.941406 194.199219 2136.890625 159.660156 2228.058594 136.808594 C 2295.628906 119.871094 2396.730469 105.871094 2532.230469 98.679688 C 2580.679688 96.101562 2645.921875 95.121094 2727.910156 95.121094 Z M 3015.199219 530.429688 C 3031.699219 530.429688 3040.640625 532.507812 3042.011719 536.664062 L 3041.589844 538.871094 C 3038.570312 543.703125 3028.160156 548.992188 3010.371094 554.738281 C 2992.449219 560.5 2971 565.359375 2946.03125 569.320312 C 2925.890625 572.332031 2908.980469 573.839844 2895.289062 573.839844 C 2892.761719 573.839844 2890.328125 573.785156 2888.019531 573.683594 C 2883.269531 573.464844 2879.308594 573.007812 2876.140625 572.3125 L 2872.078125 571.097656 C 2869.808594 570.171875 2868.53125 569.007812 2868.25 567.605469 C 2868.109375 563.179688 2875.949219 558.078125 2891.789062 552.304688 C 2907.621094 546.527344 2927.828125 541.398438 2952.421875 536.90625 C 2977.058594 532.632812 2997.800781 530.472656 3014.648438 530.429688 C 3014.828125 530.429688 3015.011719 530.429688 3015.199219 530.429688 Z M 424.558594 453.558594 L 424.558594 453.625 C 425.175781 453.5625 425.789062 453.5625 426.40625 453.5625 L 426.496094 453.570312 C 349.15625 501.292969 287.417969 534.871094 241.203125 554.113281 C 231.023438 558.347656 221 561.628906 211.488281 564.964844 C 206.273438 566.792969 192.570312 570.757812 169.960938 575.554688 C 147.621094 580.292969 118.269531 582.796875 82.007812 583.546875 L 69.902344 583.828125 C 155.949219 534.882812 222.589844 500.628906 269.890625 481.226562 C 280.269531 476.96875 290.28125 473.652344 299.605469 470.371094 C 304.910156 468.5 317.875 464.351562 339.082031 460.066406 C 362.503906 455.335938 384.292969 453.675781 404.175781 453.675781 C 404.632812 453.675781 405.085938 453.683594 405.539062 453.683594 C 405.664062 453.683594 405.796875 453.683594 405.925781 453.683594 C 412.171875 453.609375 418.382812 453.5625 424.558594 453.558594 Z M 4304.789062 509.050781 L 4304.921875 509.058594 L 4304.921875 509.113281 C 4302.769531 515.019531 4300.449219 522.445312 4298.101562 531.390625 C 4293.128906 550.324219 4288.949219 574.464844 4285.089844 603.671875 C 4283.671875 614.382812 4283.019531 624.144531 4283.199219 632.929688 L 4206.878906 619.449219 C 4204.390625 619.011719 4202.238281 617.476562 4201.03125 615.269531 C 4199.808594 613.066406 4199.648438 610.425781 4200.609375 608.09375 C 4226.101562 545.527344 4238.851562 514.242188 4238.851562 514.242188 C 4240.128906 511.101562 4243.179688 509.050781 4246.570312 509.050781 C 4277.910156 509.050781 4297.320312 509.050781 4304.789062 509.050781 Z M 4335.878906 679.875 L 4335.96875 679.878906 L 4335.921875 679.875 Z M 2578.859375 0 L 2578.859375 0.140625 C 2057 25.621094 1888.578125 125.660156 1367.070312 407.332031 C 1084.179688 351.152344 951.886719 342.160156 847.695312 342.160156 C 802.1875 342.160156 762.042969 343.875 717.050781 344.121094 C 461.953125 345.523438 187.679688 473.4375 45.59375 566.964844 C -26.558594 614.457031 -3.132812 745.558594 47.261719 863.191406 L 47.351562 863.199219 C 69.164062 870.609375 90.988281 878.027344 112.816406 885.445312 C 115.269531 886.277344 117.074219 888.371094 117.53125 890.917969 C 123.523438 924.367188 129.507812 957.796875 135.492188 991.207031 C 136.160156 994.925781 133.800781 998.519531 130.121094 999.382812 L 100.707031 1006.285156 L 45.917969 1066.632812 C 43.296875 1069.515625 42.707031 1073.707031 44.421875 1077.203125 C 46.027344 1080.46875 49.347656 1082.511719 52.945312 1082.511719 C 53.195312 1082.511719 53.445312 1082.503906 53.699219 1082.484375 C 94.226562 1079.265625 183.058594 1078.902344 203.386719 1078.902344 C 205.453125 1078.902344 206.8125 1078.910156 207.339844 1078.914062 C 292.53125 1079.695312 292.796875 1131.402344 482.523438 1136.1875 C 447.355469 1077.09375 421.203125 961.277344 421.203125 887.636719 C 421.203125 669.503906 598.523438 492.179688 816.65625 492.179688 C 1034.789062 492.179688 1212.109375 669.503906 1212.109375 887.636719 C 1212.109375 965.734375 1182.140625 1097.691406 1142.941406 1159.0625 C 1692.71875 1126.011719 2138.238281 1109.0625 2465.628906 1109.0625 C 2804.230469 1109.0625 3016.46875 1127.191406 3087 1164.382812 L 3289.519531 1185.4375 C 3252.210938 1125.09375 3211.460938 963.671875 3211.460938 887.636719 C 3211.460938 669.503906 3388.78125 492.179688 3606.910156 492.179688 C 3825.039062 492.179688 4002.371094 669.503906 4002.371094 887.636719 C 4002.371094 963.019531 3948.25 1122.960938 3915.070312 1184.992188 C 4129.640625 1173.953125 4277.019531 991.65625 4295.199219 960.617188 C 4305.179688 943.585938 4322.96875 873.347656 4322.96875 873.347656 C 4324.660156 869.933594 4324.601562 865.914062 4322.808594 862.554688 C 4321.011719 859.191406 4317.699219 856.90625 4313.929688 856.410156 L 4293.109375 853.683594 L 4292.980469 853.691406 C 4300.339844 836.175781 4306.710938 817.710938 4312.28125 797.996094 L 4335.859375 679.875 L 4335.878906 679.882812 L 4335.859375 679.875 L 4335.910156 679.878906 L 4335.921875 679.875 L 4335.96875 679.882812 L 4335.859375 679.867188 L 4335.960938 679.875 C 4327.53125 676.484375 4321.640625 672.675781 4317.769531 668.914062 C 4312.101562 663.386719 4308.179688 655.308594 4306.878906 644.121094 C 4305.539062 632.675781 4305.988281 619.171875 4308.039062 603.671875 C 4311.890625 574.464844 4316.078125 550.324219 4321.050781 531.390625 C 4325.800781 513.289062 4330.460938 501.417969 4333.699219 495.214844 C 4338.128906 486.722656 4343.148438 479.398438 4348.800781 473.003906 C 4354.070312 467.042969 4362.398438 460.320312 4374.46875 453.421875 L 4374.480469 453.429688 L 4374.46875 453.421875 L 4374.480469 453.425781 L 4374.488281 453.425781 L 4374.601562 453.433594 L 4374.480469 453.417969 L 4374.601562 453.425781 C 4366.699219 390.910156 4307.898438 348.351562 4260.550781 324.21875 L 4260.550781 324.226562 C 4270.628906 307.523438 4280.710938 290.828125 4290.789062 274.132812 L 4290.878906 274.128906 L 4290.929688 274.136719 L 4339.480469 304.996094 C 4340.730469 305.789062 4342.089844 306.308594 4343.488281 306.554688 C 4344.109375 306.660156 4344.738281 306.714844 4345.378906 306.714844 C 4347.339844 306.714844 4349.308594 306.1875 4351.058594 305.128906 C 4354.628906 302.972656 4356.671875 298.972656 4356.320312 294.8125 C 4351.511719 237.460938 4346.691406 179.949219 4341.851562 122.28125 C 4341.429688 117.25 4337.648438 113.21875 4332.789062 112.378906 C 4332.378906 112.308594 4331.949219 112.261719 4331.519531 112.230469 L 4157.558594 102.429688 C 4157.351562 102.421875 4157.140625 102.410156 4156.929688 102.410156 C 4153.429688 102.410156 4150.128906 104.078125 4148.050781 106.929688 C 4145.859375 109.949219 4145.351562 113.871094 4146.691406 117.359375 L 4162.71875 158.808594 L 4178.75 200.269531 C 4179.601562 202.460938 4181.128906 204.320312 4183.109375 205.578125 L 4232.519531 236.988281 L 4232.390625 237 C 4219.808594 257.835938 4207.21875 278.679688 4194.628906 299.519531 C 4112.101562 284.234375 3781.691406 247.808594 3781.691406 247.808594 C 3403.730469 108.671875 3174.160156 40.578125 2985.660156 8.78125 Z M 2578.859375 0 "/>
</svg>
